:FULLY-SPECIFIED
:FORCE-ALL-JOINTS-BE-3DOF
:DEGREES
781
root 1.59943 16.3331 18.6974 -10.2259 74.8979 -16.4709
lfemur -36.9201 13.4717 -14.1211
ltibia 50.3346 -0 0
lfoot -21.9469 20.9497 0.0409933
ltoes 16.2591 -0 0
rfemur -15.1102 -22.3834 21.7332
rtibia 50.7713 -0 0
rfoot -18.5851 -32.6994 -0.207249
rtoes -25.827 0 0
lowerback 1.12824 4.67503 -0.840548
upperback -0.877348 6.21649 -3.79979
thorax -1.19519 3.12072 -3.55145
lowerneck -5.30559 -6.56909 -0.623374
upperneck -2.45764 -8.64268 5.1076
head 0.388824 -4.24981 1.50276
lclavicle 6.65701e-15 4.84316e-16 2.68854e-31
lhumerus -55.7159 -11.5445 95.2397
lradius 70.6597 -0 0
lwrist 12.8789 0 0
lhand -21.0683 -4.96334 0.0177602
lfingers 7.12502 -0 0
lthumb 5.3082 24.9436 0.0157352
rclavicle 6.65701e-15 4.84316e-16 2.68854e-31
rhumerus -31.7917 47.9973 -113.542
rradius 79.8037 -0 0
rwrist 5.97191 0 0
rhand -23.6124 -20.0023 -0.0104106
rfingers 7.12502 -0 0
rthumb 2.85132 -49.9554 -0.00836832
782
root 1.58064 16.3168 18.8438 -7.26705 72.3309 -13.5832
lfemur -37.0724 13.5745 -14.0027
ltibia 50.1886 -0 0
lfoot -21.9197 21.2549 0.0809761
ltoes 16.3602 -0 0
rfemur -14.6217 -21.9173 21.9608
rtibia 49.4706 -0 0
rfoot -19.1628 -32.8817 -0.416379
rtoes -26.4619 0 0
lowerback 1.10934 4.67035 -0.769555
upperback -0.852733 6.21223 -3.78128
thorax -1.1516 3.11928 -3.56521
lowerneck -5.28008 -6.4822 -0.561125
upperneck -2.42009 -8.53069 5.07613
head 0.391964 -4.1928 1.48708
lclavicle 7.34184e-15 9.66428e-16 5.42499e-31
lhumerus -55.6472 -11.4428 95.6535
lradius 70.6632 -0 0
lwrist 12.8418 0 0
lhand -20.8375 -4.83241 0.0365825
lfingers 7.12502 -0 0
lthumb 5.53084 25.062 0.0324157
rclavicle 7.34184e-15 9.66428e-16 5.42499e-31
rhumerus -32.9062 47.8508 -114.562
rradius 79.4766 -0 0
rwrist 6.00946 0 0
rhand -23.2982 -19.9057 -0.0216684
rfingers 7.12502 -0 0
rthumb 3.15437 -49.8464 -0.0174667
783
root 1.56736 16.303 19.0001 -5.01705 69.6496 -11.4096
lfemur -37.2189 13.6607 -13.8626
ltibia 50.0034 -0 0
lfoot -21.8751 21.5523 0.119667
ltoes 16.4655 -0 0
rfemur -14.1074 -21.4214 22.1845
rtibia 48.1388 -0 0
rfoot -19.74 -33.0366 -0.626246
rtoes -27.0947 0 0
lowerback 1.08882 4.66846 -0.690823
upperback -0.8278 6.21178 -3.75828
thorax -1.10608 3.11975 -3.57833
lowerneck -5.25498 -6.38965 -0.494319
upperneck -2.37897 -8.41161 5.04015
head 0.395918 -4.13227 1.46941
lclavicle 8.01555e-15 1.44461e-15 8.19775e-31
lhumerus -55.5752 -11.3353 96.0586
lradius 70.6441 -0 0
lwrist 12.8111 0 0
lhand -20.5903 -4.68963 0.0562782
lfingers 7.12502 -0 0
lthumb 5.76923 25.1913 0.0498754
rclavicle 8.01555e-15 1.44461e-15 8.19775e-31
rhumerus -34.0034 47.6887 -115.561
rradius 79.136 -0 0
rwrist 6.03633 0 0
rhand -22.9653 -19.8122 -0.03376
rfingers 7.12502 -0 0
rthumb 3.47543 -49.7394 -0.0273019
784
root 1.5593 16.2917 19.1652 -3.26195 66.8736 -9.73624
lfemur -37.3589 13.7301 -13.7011
ltibia 49.7794 -0 0
lfoot -21.8131 21.8407 0.156794
ltoes 16.5745 -0 0
rfemur -13.5689 -20.8972 22.4041
rtibia 46.7804 -0 0
rfoot -20.3147 -33.1632 -0.835677
rtoes -27.7231 0 0
lowerback 1.06675 4.66938 -0.604565
upperback -0.802631 6.21518 -3.73083
thorax -1.05878 3.12216 -3.59077
lowerneck -5.23037 -6.29171 -0.423153
upperneck -2.3344 -8.28579 4.99976
head 0.400674 -4.06838 1.4498
lclavicle 8.67565e-15 1.91712e-15 1.09944e-30
lhumerus -55.5002 -11.2225 96.4534
lradius 70.6023 -0 0
lwrist 12.787 0 0
lhand -20.3275 -4.53539 0.0766553
lfingers 7.12502 -0 0
lthumb 6.02267 25.331 0.0679448
rclavicle 8.67565e-15 1.91712e-15 1.09944e-30
rhumerus -35.0787 47.5121 -116.535
rradius 78.7828 -0 0
rwrist 6.05234 0 0
rhand -22.6148 -19.7222 -0.0466615
rfingers 7.12502 -0 0
rthumb 3.81353 -49.635 -0.0378704
785
root 1.55614 16.2828 19.3383 -1.86298 64.0186 -8.42432
lfemur -37.492 13.7821 -13.5185
ltibia 49.5167 -0 0
lfoot -21.7337 22.1189 0.192095
ltoes 16.687 -0 0
rfemur -13.0079 -20.3463 22.6196
rtibia 45.3997 -0 0
rfoot -20.8852 -33.2609 -1.04348
rtoes -28.3449 0 0
lowerback 1.04319 4.67317 -0.510992
upperback -0.777308 6.22246 -3.69897
thorax -1.00984 3.12651 -3.60247
lowerneck -5.20633 -6.18867 -0.347822
upperneck -2.28654 -8.15358 4.95507
head 0.406219 -4.00132 1.42828
lclavicle 9.31964e-15 2.38224e-15 1.38018e-30
lhumerus -55.4223 -11.1047 96.8365
lradius 70.5375 -0 0
lwrist 12.7696 0 0
lhand -20.0498 -4.37009 0.0975198
lfingers 7.12502 -0 0
lthumb 6.29046 25.481 0.0864527
rclavicle 9.31964e-15 2.38224e-15 1.38018e-30
rhumerus -36.128 47.3226 -117.48
rradius 78.4182 -0 0
rwrist 6.05729 0 0
rhand -22.2476 -19.636 -0.0603381
rfingers 7.12502 -0 0
rthumb 4.16768 -49.5334 -0.0491585
786
root 1.55759 16.276 19.5186 -0.727169 61.0983 -7.38082
lfemur -37.6176 13.8163 -13.3149
ltibia 49.2157 -0 0
lfoot -21.6369 22.386 0.22532
ltoes 16.8026 -0 0
rfemur -12.4263 -19.7701 22.8307
rtibia 44.0013 -0 0
rfoot -21.4494 -33.329 -1.24844
rtoes -28.9576 0 0
lowerback 1.01821 4.67986 -0.410316
upperback -0.751912 6.23366 -3.66273
thorax -0.959406 3.13281 -3.61338
lowerneck -5.18293 -6.0808 -0.268526
upperneck -2.23551 -8.01532 4.90619
head 0.412543 -3.93128 1.4049
lclavicle 9.94505e-15 2.83823e-15 1.66059e-30
lhumerus -55.3419 -10.9822 97.2063
lradius 70.4498 -0 0
lwrist 12.7591 0 0
lhand -19.7579 -4.19411 0.118677
lfingers 7.12502 -0 0
lthumb 6.5719 25.6408 0.105227
rclavicle 9.94505e-15 2.83823e-15 1.66059e-30
rhumerus -37.147 47.1216 -118.391
rradius 78.0433 -0 0
rwrist 6.051 0 0
rhand -21.8648 -19.5539 -0.0747443
rfingers 7.12502 -0 0
rthumb 4.5369 -49.4351 -0.0611416
787
root 1.56335 16.2714 19.7051 0.209656 58.1247 -6.5416
lfemur -37.7353 13.8323 -13.0908
ltibia 48.8768 -0 0
lfoot -21.5229 22.6407 0.256233
ltoes 16.921 -0 0
rfemur -11.8258 -19.1702 23.0373
rtibia 42.5896 -0 0
rfoot -22.0056 -33.3667 -1.44935
rtoes -29.5592 0 0
lowerback 0.991872 4.68949 -0.302749
upperback -0.726524 6.2488 -3.62216
thorax -0.907622 3.14109 -3.62343
lowerneck -5.16024 -5.96838 -0.185461
upperneck -2.18145 -7.87138 4.85323
head 0.419634 -3.85843 1.37972
lclavicle 1.05494e-14 3.28337e-15 1.93922e-30
lhumerus -55.2591 -10.8553 97.5614
lradius 70.3389 -0 0
lwrist 12.7557 0 0
lhand -19.4526 -4.00784 0.139932
lfingers 7.12502 -0 0
lthumb 6.86629 25.81 0.124096
rclavicle 1.05494e-14 3.28337e-15 1.93922e-30
rhumerus -38.132 46.9108 -119.266
rradius 77.6592 -0 0
rwrist 6.03327 0 0
rhand -21.4673 -19.4764 -0.0898231
rfingers 7.12502 -0 0
rthumb 4.92022 -49.3405 -0.0737841
